<svg width="256" height="207" version="1.1" xmlns="http://www.w3.org/2000/svg"><path fill="rgb(0,0,0)" stroke="rgb(0,0,0)" stroke-width="1" opacity="0" d="M 0 0 L 106 0.5 L 95 11.5 L 83 27.5 L 85.5 28 L 103.5 13 L 111.5 8 L 123.5 2 L 125.5 2 L 127.5 0 L 151.5 0 L 151 1.5 L 151 3.5 L 149 6.5 L 149 15.5 L 152 22.5 L 157.5 28 L 166.5 32 L 172.5 32 L 178.5 30 L 185 25.5 L 190 16.5 L 190 5.5 L 188 0 L 191 0 L 191 1.5 L 193 5.5 L 193 15.5 L 204 28.5 L 206 33.5 L 211 40.5 L 218 56.5 L 224 74.5 L 224 77.5 L 226 81.5 L 227 88.5 L 228 89.5 L 229 99.5 L 230 100.5 L 230 106.5 Q 231.75 107.42 231 110 L 233 109.5 L 233 101.5 L 234 100.5 L 234 78.5 L 233 77.5 L 233 67.5 L 232 66.5 L 232 59.5 L 231 58.5 L 231 53.5 L 230 52.5 L 230 48.5 L 228 43.5 L 228 39.5 L 226 36.5 L 226 33.5 L 223 26.5 L 223 23.5 L 221 20.5 L 217 8.5 L 212 0.5 L 256 0 L 256 206.5 L 255.5 207 L 188.5 207 L 188.5 206 Q 205.31 198.31 216 184.5 L 225 168.5 L 226 163.5 L 229 157.5 L 230 148.5 L 231 147.5 L 232 127.5 Q 231 125 230 126.5 L 227 136.5 L 221 147.5 L 209.5 161 L 197.5 170 L 184.5 176 L 182.5 178 L 167.5 183 L 164.5 183 L 155.5 186 L 151.5 186 L 150.5 187 L 136.5 188 L 135.5 189 L 108.5 189 L 107.5 188 L 100.5 188 Q 99.5 186 95.5 187 L 90.5 192 L 82.5 196 Q 79.25 195.25 78.5 197 L 64.5 197 L 55.5 193 L 47 185.5 L 44 181.5 L 41 174.5 Q 42 170.5 40 169.5 L 40 161.5 L 41 160.5 L 42 154.5 L 48 144.5 L 47 143.5 L 46 135.5 L 45 134.5 L 45 114.5 L 46 113.5 L 48 99.5 L 49 98.5 L 49 95.5 L 50 94.5 L 50 91.5 L 52 87.5 L 52 84.5 L 54 78.5 L 64 56.5 L 67 52.5 L 67 50 Q 64.13 49.5 63 52.5 L 42 81.5 L 25 113.5 L 24 118.5 L 22 121.5 L 17 136.5 L 17 139.5 L 16 140.5 L 16 143.5 L 13 152.5 L 13 158.5 L 12 159.5 L 12 181.5 L 13 182.5 L 13 187.5 L 17 199.5 Q 20.5 202.12 21 207 L 0.5 207 L 0 206.5 L 0 0 Z M 67 137 L 55 142 L 46 153 L 43 162 L 43 170 Q 45 170 44 174 L 49 184 L 58 191 L 60 191 L 65 194 Q 69 193 71 195 L 80 194 L 90 189 L 96 183 L 101 170 L 101 163 Q 99 162 100 158 L 95 148 Q 90 141 82 138 Q 78 139 78 137 L 67 137 Z "></path><path fill="rgb(183,183,183)" stroke="rgb(183,183,183)" stroke-width="1" opacity="1" d="M 161 0 L 177.5 0 L 180 2.5 L 183 7.5 L 183 14.5 Q 181.33 19.33 177.5 22 L 173.5 24 L 165.5 24 L 160 20.5 L 157 15.5 L 156 10.5 Q 157.75 9.75 157 6.5 L 161 1.5 L 161 0 Z M 167 4 L 162 10 L 163 15 L 168 18 L 173 18 L 175 17 Q 175 15 177 14 Q 178 9 176 7 Q 174 3 167 4 Z "></path><path fill="rgb(183,183,183)" stroke="rgb(183,183,183)" stroke-width="1" opacity="1" d="M 67.5 147 L 76.5 147 L 79.5 149 L 81.5 149 L 87 154.5 Q 86.33 157.13 89 156 L 89 158.5 L 91 162.5 L 91 168.5 L 86 179 L 84.5 179 L 80.5 183 L 77.5 184 L 67.5 184 L 62.5 182 L 58 178.5 L 54 171.5 Q 54.67 167.33 53 165.5 L 54 162.5 Q 54.97 153.47 61.5 150 L 67.5 147 Z M 70 155 L 65 157 L 65 159 L 62 163 Q 61 169 63 172 L 70 176 L 74 176 L 79 174 Q 84 171 82 162 L 77 156 L 70 155 Z "></path><path fill="rgb(157,199,77)" stroke="rgb(157,199,77)" stroke-width="1" opacity="0.23137254901960785" d="M 106.5 0 L 107 0.5 L 99 8.5 L 89 20.5 L 87 24.5 L 87.5 25 L 92.5 20 L 109.5 8 L 126.5 0 Q 128 1 125.5 2 L 123.5 2 L 106.5 11 L 91.5 22 L 85.5 28 L 84 28 L 84 25.5 L 92 16.5 L 95 11.5 L 106.5 0 Z M 87 25 L 87 26 L 87 25 Z "></path><path fill="rgb(157,199,77)" stroke="rgb(157,199,77)" stroke-width="1" opacity="0.23137254901960785" d="M 191.5 0 L 194 4.5 L 194 14.5 L 201 22.5 L 214 44.5 L 214 46.5 L 217 51.5 L 220 61.5 L 222 64.5 L 222 67.5 L 225 74.5 L 226 80.5 L 225 80.5 L 224 74.5 L 218 56.5 L 213 46.5 L 213 44.5 L 206 33.5 L 204 28.5 L 193 15.5 L 193 5.5 L 191 1.5 L 191.5 0 Z "></path><path fill="rgb(157,199,77)" stroke="rgb(157,199,77)" stroke-width="1" opacity="0.23137254901960785" d="M 211.5 0 L 219 13.5 L 222 22.5 L 221 22.5 L 218 13.5 L 213 3.5 L 211 1.5 L 211.5 0 Z "></path><path fill="rgb(157,199,77)" stroke="rgb(157,199,77)" stroke-width="1" opacity="0.23137254901960785" d="M 188.5 19 L 188.5 20 L 188.5 19 Z "></path><path fill="rgb(157,199,77)" stroke="rgb(157,199,77)" stroke-width="1" opacity="0.23137254901960785" d="M 187.5 21 L 187.5 22 L 187.5 21 Z "></path><path fill="rgb(157,199,77)" stroke="rgb(157,199,77)" stroke-width="1" opacity="0.23137254901960785" d="M 222.5 24 L 223 25.5 L 222 25.5 L 222.5 24 Z "></path><path fill="rgb(157,199,77)" stroke="rgb(157,199,77)" stroke-width="1" opacity="0.23137254901960785" d="M 223.5 27 L 224 28.5 L 223 28.5 L 223.5 27 Z "></path><path fill="rgb(157,199,77)" stroke="rgb(157,199,77)" stroke-width="1" opacity="0.23137254901960785" d="M 224.5 30 L 225 31.5 L 224 31.5 L 224.5 30 Z "></path><path fill="rgb(157,199,77)" stroke="rgb(157,199,77)" stroke-width="1" opacity="0.23137254901960785" d="M 225.5 33 L 226 35.5 L 225 35.5 L 225.5 33 Z "></path><path fill="rgb(157,199,77)" stroke="rgb(157,199,77)" stroke-width="1" opacity="0.23137254901960785" d="M 226.5 37 L 228 39.5 L 228 43.5 L 230 48.5 L 230 52.5 L 229 52.5 L 229 48.5 L 226 39.5 L 226.5 37 Z "></path><path fill="rgb(157,199,77)" stroke="rgb(157,199,77)" stroke-width="1" opacity="0.23137254901960785" d="M 230.5 54 L 231 58.5 L 230 58.5 L 230.5 54 Z "></path><path fill="rgb(157,199,77)" stroke="rgb(157,199,77)" stroke-width="1" opacity="0.23137254901960785" d="M 231.5 60 L 232 66.5 L 231 66.5 L 231.5 60 Z "></path><path fill="rgb(157,199,77)" stroke="rgb(157,199,77)" stroke-width="1" opacity="0.23137254901960785" d="M 232.5 68 L 233 77.5 L 232 77.5 L 232.5 68 Z "></path><path fill="rgb(157,199,77)" stroke="rgb(157,199,77)" stroke-width="1" opacity="0.23137254901960785" d="M 233.5 80 L 234 99.5 L 233 99.5 L 233.5 80 Z "></path><path fill="rgb(157,199,77)" stroke="rgb(157,199,77)" stroke-width="1" opacity="0.23137254901960785" d="M 226.5 82 L 227 84.5 L 226 84.5 L 226.5 82 Z "></path><path fill="rgb(157,199,77)" stroke="rgb(157,199,77)" stroke-width="1" opacity="0.23137254901960785" d="M 227.5 86 L 228 88.5 L 227 88.5 L 227.5 86 Z "></path><path fill="rgb(157,199,77)" stroke="rgb(157,199,77)" stroke-width="1" opacity="0.23137254901960785" d="M 228.5 90 L 229 93.5 L 228 93.5 L 228.5 90 Z "></path><path fill="rgb(157,199,77)" stroke="rgb(157,199,77)" stroke-width="1" opacity="0.23137254901960785" d="M 229.5 95 L 230 99.5 L 229 99.5 L 229.5 95 Z "></path><path fill="rgb(157,199,77)" stroke="rgb(157,199,77)" stroke-width="1" opacity="0.23137254901960785" d="M 230.5 101 L 231 105.5 L 230 105.5 L 230.5 101 Z "></path><path fill="rgb(157,199,77)" stroke="rgb(157,199,77)" stroke-width="1" opacity="0.23137254901960785" d="M 232.5 102 L 233 110 Q 230 111.25 231 107.5 L 232 106.5 L 232.5 102 Z "></path><path fill="rgb(157,199,77)" stroke="rgb(157,199,77)" stroke-width="1" opacity="0.23137254901960785" d="M 66.5 137 L 66.5 138 L 66.5 137 Z "></path><path fill="rgb(157,199,77)" stroke="rgb(157,199,77)" stroke-width="1" opacity="0.23137254901960785" d="M 43.5 161 L 43.5 162 L 43.5 161 Z "></path><path fill="rgb(46,174,230)" stroke="rgb(46,174,230)" stroke-width="1" opacity="0.20784313725490197" d="M 149.5 6 L 149.5 7 L 149.5 6 Z "></path><path fill="rgb(46,174,230)" stroke="rgb(46,174,230)" stroke-width="1" opacity="0.20784313725490197" d="M 216.5 8 L 216.5 9 L 216.5 8 Z "></path><path fill="rgb(46,174,230)" stroke="rgb(46,174,230)" stroke-width="1" opacity="0.20784313725490197" d="M 149.5 15 L 149.5 16 L 149.5 15 Z "></path><path fill="rgb(46,174,230)" stroke="rgb(46,174,230)" stroke-width="1" opacity="0.20784313725490197" d="M 91.5 22 L 91.5 23 L 91.5 22 Z "></path><path fill="rgb(46,174,230)" stroke="rgb(46,174,230)" stroke-width="1" opacity="0.20784313725490197" d="M 152.5 22 L 152.5 23 L 152.5 22 Z "></path><path fill="rgb(46,174,230)" stroke="rgb(46,174,230)" stroke-width="1" opacity="0.20784313725490197" d="M 222.5 23 L 222.5 24 L 222.5 23 Z "></path><path fill="rgb(46,174,230)" stroke="rgb(46,174,230)" stroke-width="1" opacity="0.20784313725490197" d="M 184.5 25 Q 186 26 183.5 27 Q 182 26 184.5 25 Z "></path><path fill="rgb(46,174,230)" stroke="rgb(46,174,230)" stroke-width="1" opacity="0.20784313725490197" d="M 178.5 29 L 178.5 30 L 178.5 29 Z "></path><path fill="rgb(46,174,230)" stroke="rgb(46,174,230)" stroke-width="1" opacity="0.20784313725490197" d="M 176.5 30 L 176.5 31 L 176.5 30 Z "></path><path fill="rgb(46,174,230)" stroke="rgb(46,174,230)" stroke-width="1" opacity="0.20784313725490197" d="M 166.5 31 L 166.5 32 L 166.5 31 Z "></path><path fill="rgb(46,174,230)" stroke="rgb(46,174,230)" stroke-width="1" opacity="0.20784313725490197" d="M 172.5 31 L 172.5 32 L 172.5 31 Z "></path><path fill="rgb(46,174,230)" stroke="rgb(46,174,230)" stroke-width="1" opacity="0.20784313725490197" d="M 65.5 50 Q 68.13 49.17 67 52.5 L 65 54.5 L 57.5 70 L 57 68.5 L 64 54.5 L 63.5 54 L 61 56.5 L 54 65.5 L 35 95.5 L 28 109.5 L 28 111.5 L 25 116.5 L 25 118.5 L 21.5 126 L 21 124.5 L 24 118.5 L 25 113.5 L 39 86.5 L 49 72.5 L 52 66.5 L 65.5 50 Z M 65 53 L 65 54 L 65 53 Z "></path><path fill="rgb(46,174,230)" stroke="rgb(46,174,230)" stroke-width="1" opacity="0.20784313725490197" d="M 230.5 53 L 230.5 54 L 230.5 53 Z "></path><path fill="rgb(46,174,230)" stroke="rgb(46,174,230)" stroke-width="1" opacity="0.20784313725490197" d="M 231.5 59 L 231.5 60 L 231.5 59 Z "></path><path fill="rgb(46,174,230)" stroke="rgb(46,174,230)" stroke-width="1" opacity="0.20784313725490197" d="M 232.5 67 L 232.5 68 L 232.5 67 Z "></path><path fill="rgb(46,174,230)" stroke="rgb(46,174,230)" stroke-width="1" opacity="0.20784313725490197" d="M 56.5 71 L 57 72.5 L 54 78.5 L 52 84.5 L 52 87.5 L 50 91.5 L 45.5 114 L 45 109.5 L 46 108.5 L 46 103.5 L 47 102.5 L 50 87.5 L 56.5 71 Z "></path><path fill="rgb(46,174,230)" stroke="rgb(46,174,230)" stroke-width="1" opacity="0.20784313725490197" d="M 233.5 78 L 234 79.5 L 233 79.5 L 233.5 78 Z "></path><path fill="rgb(46,174,230)" stroke="rgb(46,174,230)" stroke-width="1" opacity="0.20784313725490197" d="M 233.5 100 L 233.5 101 L 233.5 100 Z "></path><path fill="rgb(46,174,230)" stroke="rgb(46,174,230)" stroke-width="1" opacity="0.20784313725490197" d="M 230.5 106 L 230.5 107 L 230.5 106 Z "></path><path fill="rgb(46,174,230)" stroke="rgb(46,174,230)" stroke-width="1" opacity="0.20784313725490197" d="M 44.5 118 L 45 131.5 L 44 131.5 L 44.5 118 Z "></path><path fill="rgb(46,174,230)" stroke="rgb(46,174,230)" stroke-width="1" opacity="0.20784313725490197" d="M 230.5 126 L 232 127.5 L 232 136.5 L 231 136.5 L 230.5 129 L 229.5 131 L 229 129.5 L 230.5 126 Z "></path><path fill="rgb(46,174,230)" stroke="rgb(46,174,230)" stroke-width="1" opacity="0.20784313725490197" d="M 20.5 127 L 21 128.5 L 20 128.5 L 20.5 127 Z "></path><path fill="rgb(46,174,230)" stroke="rgb(46,174,230)" stroke-width="1" opacity="0.20784313725490197" d="M 19.5 130 L 20 131.5 L 19 131.5 L 19.5 130 Z "></path><path fill="rgb(46,174,230)" stroke="rgb(46,174,230)" stroke-width="1" opacity="0.20784313725490197" d="M 228.5 132 L 229 133.5 L 227.5 136 L 227 134.5 L 228.5 132 Z "></path><path fill="rgb(46,174,230)" stroke="rgb(46,174,230)" stroke-width="1" opacity="0.20784313725490197" d="M 18.5 133 L 19 135.5 L 17.5 139 L 17 136.5 L 18.5 133 Z "></path><path fill="rgb(46,174,230)" stroke="rgb(46,174,230)" stroke-width="1" opacity="0.20784313725490197" d="M 45.5 135 L 47 143.5 L 48 144.5 L 42 154.5 L 40.5 161 L 40 157.5 L 44 148.5 L 46 146.5 L 46 140.5 Q 43.65 139.15 45.5 135 Z "></path><path fill="rgb(46,174,230)" stroke="rgb(46,174,230)" stroke-width="1" opacity="0.20784313725490197" d="M 226.5 137 L 226.5 138 L 226.5 137 Z "></path><path fill="rgb(46,174,230)" stroke="rgb(46,174,230)" stroke-width="1" opacity="0.20784313725490197" d="M 62.5 138 L 62.5 139 L 62.5 138 Z "></path><path fill="rgb(46,174,230)" stroke="rgb(46,174,230)" stroke-width="1" opacity="0.20784313725490197" d="M 81.5 138 L 81.5 139 L 81.5 138 Z "></path><path fill="rgb(46,174,230)" stroke="rgb(46,174,230)" stroke-width="1" opacity="0.20784313725490197" d="M 225.5 139 L 226 140.5 L 217 154.5 L 208.5 163 Q 197.75 172.25 183.5 178 Q 182 177 184.5 176 Q 195.22 172.22 203.5 166 L 215 155.5 L 221 147.5 L 225.5 139 Z "></path><path fill="rgb(46,174,230)" stroke="rgb(46,174,230)" stroke-width="1" opacity="0.20784313725490197" d="M 16.5 140 L 17 142.5 L 16 142.5 L 16.5 140 Z "></path><path fill="rgb(46,174,230)" stroke="rgb(46,174,230)" stroke-width="1" opacity="0.20784313725490197" d="M 230.5 140 L 231 147.5 L 230 148.5 L 229 157.5 L 226.5 163 L 226 161.5 L 229 153.5 L 230.5 140 Z "></path><path fill="rgb(46,174,230)" stroke="rgb(46,174,230)" stroke-width="1" opacity="0.20784313725490197" d="M 54.5 142 L 54.5 143 L 54.5 142 Z "></path><path fill="rgb(46,174,230)" stroke="rgb(46,174,230)" stroke-width="1" opacity="0.20784313725490197" d="M 90.5 143 L 90.5 144 L 90.5 143 Z "></path><path fill="rgb(46,174,230)" stroke="rgb(46,174,230)" stroke-width="1" opacity="0.20784313725490197" d="M 15.5 144 L 16 146.5 L 15 146.5 L 15.5 144 Z "></path><path fill="rgb(46,174,230)" stroke="rgb(46,174,230)" stroke-width="1" opacity="0.20784313725490197" d="M 50.5 146 L 50.5 147 L 50.5 146 Z "></path><path fill="rgb(46,174,230)" stroke="rgb(46,174,230)" stroke-width="1" opacity="0.20784313725490197" d="M 94.5 147 L 94.5 148 L 94.5 147 Z "></path><path fill="rgb(46,174,230)" stroke="rgb(46,174,230)" stroke-width="1" opacity="0.20784313725490197" d="M 14.5 148 L 15 151.5 L 14 152.5 L 14 158.5 L 13 159.5 L 13 181.5 L 14 182.5 L 14 186.5 L 15 187.5 L 15 190.5 L 17 196.5 L 23 206.5 L 21 207 Q 20.5 202.13 17 199.5 L 13 187.5 Q 14.25 182.75 12 181.5 L 12 159.5 L 13 158.5 L 13 152.5 L 14.5 148 Z "></path><path fill="rgb(46,174,230)" stroke="rgb(46,174,230)" stroke-width="1" opacity="0.20784313725490197" d="M 46.5 152 L 46.5 153 L 46.5 152 Z "></path><path fill="rgb(46,174,230)" stroke="rgb(46,174,230)" stroke-width="1" opacity="0.20784313725490197" d="M 44.5 157 L 44.5 158 L 44.5 157 Z "></path><path fill="rgb(46,174,230)" stroke="rgb(46,174,230)" stroke-width="1" opacity="0.20784313725490197" d="M 39.5 163 L 40 167.5 L 39 167.5 L 39.5 163 Z "></path><path fill="rgb(46,174,230)" stroke="rgb(46,174,230)" stroke-width="1" opacity="0.20784313725490197" d="M 225.5 164 L 226 165.5 L 225 165.5 L 225.5 164 Z "></path><path fill="rgb(46,174,230)" stroke="rgb(46,174,230)" stroke-width="1" opacity="0.20784313725490197" d="M 224.5 167 L 225 168.5 L 223.5 171 L 223 169.5 L 224.5 167 Z "></path><path fill="rgb(46,174,230)" stroke="rgb(46,174,230)" stroke-width="1" opacity="0.20784313725490197" d="M 43.5 169 L 43.5 170 L 43.5 169 Z "></path><path fill="rgb(46,174,230)" stroke="rgb(46,174,230)" stroke-width="1" opacity="0.20784313725490197" d="M 100.5 169 L 100.5 170 L 100.5 169 Z "></path><path fill="rgb(46,174,230)" stroke="rgb(46,174,230)" stroke-width="1" opacity="0.20784313725490197" d="M 40.5 170 L 41 173.5 L 40 173.5 L 40.5 170 Z "></path><path fill="rgb(46,174,230)" stroke="rgb(46,174,230)" stroke-width="1" opacity="0.20784313725490197" d="M 222.5 172 L 222.5 173 L 222.5 172 Z "></path><path fill="rgb(46,174,230)" stroke="rgb(46,174,230)" stroke-width="1" opacity="0.20784313725490197" d="M 44.5 173 L 44.5 174 L 44.5 173 Z "></path><path fill="rgb(46,174,230)" stroke="rgb(46,174,230)" stroke-width="1" opacity="0.20784313725490197" d="M 221.5 174 L 221 175.5 L 216 184.5 L 203.5 197 L 194.5 203 Q 193 202 195.5 201 Q 205.66 195.16 213 186.5 L 221.5 174 Z "></path><path fill="rgb(46,174,230)" stroke="rgb(46,174,230)" stroke-width="1" opacity="0.20784313725490197" d="M 41.5 175 L 44 181.5 L 51.5 190 Q 56.45 194.55 64 196.5 L 61.5 197 L 53.5 193 L 45 184.5 Q 41.21 180.63 41.5 175 Z "></path><path fill="rgb(46,174,230)" stroke="rgb(46,174,230)" stroke-width="1" opacity="0.20784313725490197" d="M 180.5 178 L 182 178.5 L 180.5 179 L 180.5 178 Z "></path><path fill="rgb(46,174,230)" stroke="rgb(46,174,230)" stroke-width="1" opacity="0.20784313725490197" d="M 177.5 179 L 179 179.5 L 167.5 184 L 164.5 184 L 155.5 187 L 151.5 187 L 150.5 188 L 145.5 188 L 144.5 189 L 137.5 189 L 136.5 190 L 107.5 190 L 106.5 189 L 95.5 188 L 90.5 193 L 82.5 197 Q 79.25 196.25 78.5 198 L 65.5 198 L 65.5 197 L 78.5 197 Q 79.25 195.25 82.5 196 L 90.5 192 L 95.5 187 L 99.5 187 L 100.5 188 L 107.5 188 L 108.5 189 L 135.5 189 L 136.5 188 L 143.5 188 L 144.5 187 L 155.5 186 L 156.5 185 L 167.5 183 L 177.5 179 Z "></path><path fill="rgb(46,174,230)" stroke="rgb(46,174,230)" stroke-width="1" opacity="0.20784313725490197" d="M 95.5 182 L 95.5 183 L 95.5 182 Z "></path><path fill="rgb(46,174,230)" stroke="rgb(46,174,230)" stroke-width="1" opacity="0.20784313725490197" d="M 54.5 188 L 54.5 189 L 54.5 188 Z "></path><path fill="rgb(46,174,230)" stroke="rgb(46,174,230)" stroke-width="1" opacity="0.20784313725490197" d="M 89.5 188 L 89.5 189 L 89.5 188 Z "></path><path fill="rgb(46,174,230)" stroke="rgb(46,174,230)" stroke-width="1" opacity="0.20784313725490197" d="M 57.5 190 L 57.5 191 L 57.5 190 Z "></path><path fill="rgb(46,174,230)" stroke="rgb(46,174,230)" stroke-width="1" opacity="0.20784313725490197" d="M 86.5 190 L 86.5 191 L 86.5 190 Z "></path><path fill="rgb(46,174,230)" stroke="rgb(46,174,230)" stroke-width="1" opacity="0.20784313725490197" d="M 84.5 191 L 84.5 192 L 84.5 191 Z "></path><path fill="rgb(46,174,230)" stroke="rgb(46,174,230)" stroke-width="1" opacity="0.20784313725490197" d="M 64.5 193 L 64.5 194 L 64.5 193 Z "></path><path fill="rgb(46,174,230)" stroke="rgb(46,174,230)" stroke-width="1" opacity="0.20784313725490197" d="M 79.5 193 L 79.5 194 L 79.5 193 Z "></path><path fill="rgb(46,174,230)" stroke="rgb(46,174,230)" stroke-width="1" opacity="0.20784313725490197" d="M 70.5 194 L 74 194.5 L 70.5 195 L 70.5 194 Z "></path><path fill="rgb(46,174,230)" stroke="rgb(46,174,230)" stroke-width="1" opacity="0.20784313725490197" d="M 192.5 203 Q 194 204 191.5 205 L 189.5 206 Q 188 205 190.5 204 L 192.5 203 Z "></path><path fill="rgb(46,174,230)" stroke="rgb(46,174,230)" stroke-width="1" opacity="0.20784313725490197" d="M 187.5 206 L 187.5 207 L 187.5 206 Z "></path><path fill="rgb(135,185,47)" stroke="rgb(135,185,47)" stroke-width="1" opacity="0.984313725490196" d="M 192.5 0 L 210.5 0 L 211 1.5 L 213 3.5 L 222 23.5 L 225 32.5 L 228 47.5 L 229 48.5 L 230 58.5 L 231 59.5 L 231 66.5 L 232 67.5 L 232 77.5 L 233 78.5 L 233 101.5 L 232 102.5 L 231.5 107 L 231 101.5 L 230 100.5 L 230 95.5 L 229 94.5 L 229 90.5 L 228 89.5 L 225 74.5 L 222 67.5 L 222 64.5 L 220 61.5 L 219 56.5 L 211 38.5 L 201 22.5 L 194 14.5 L 194 4.5 L 192 0.5 L 192.5 0 Z "></path><path fill="rgb(0,140,211)" stroke="rgb(0,140,211)" stroke-width="1" opacity="0.9764705882352941" d="M 64.5 53 L 64 54.5 L 57.5 68 L 56 67.5 L 57 70.5 L 52.5 81 L 52 78.5 L 56 70.5 L 54 70 L 54 71.5 L 48 79.5 L 47 82.5 L 40 91.5 L 38 96.5 L 31 105.5 L 28.5 111 L 28 109.5 L 42 83.5 L 54 65.5 L 64.5 53 Z M 58 65 L 58 66 L 58 65 Z "></path><path fill="rgb(0,140,211)" stroke="rgb(0,140,211)" stroke-width="1" opacity="0.9764705882352941" d="M 51.5 82 L 52 83.5 L 51 83.5 L 51.5 82 Z "></path><path fill="rgb(0,140,211)" stroke="rgb(0,140,211)" stroke-width="1" opacity="0.9764705882352941" d="M 50.5 85 L 51 86.5 L 50 86.5 L 50.5 85 Z "></path><path fill="rgb(0,140,211)" stroke="rgb(0,140,211)" stroke-width="1" opacity="0.9764705882352941" d="M 46.5 88 L 46.5 89 L 46.5 88 Z "></path><path fill="rgb(0,140,211)" stroke="rgb(0,140,211)" stroke-width="1" opacity="0.9764705882352941" d="M 49.5 88 L 50 90.5 L 49 90.5 L 49.5 88 Z "></path><path fill="rgb(0,140,211)" stroke="rgb(0,140,211)" stroke-width="1" opacity="0.9764705882352941" d="M 48.5 92 L 49 94.5 L 48 94.5 L 48.5 92 Z "></path><path fill="rgb(0,140,211)" stroke="rgb(0,140,211)" stroke-width="1" opacity="0.9764705882352941" d="M 47.5 96 L 48 98.5 L 47 98.5 L 47.5 96 Z "></path><path fill="rgb(0,140,211)" stroke="rgb(0,140,211)" stroke-width="1" opacity="0.9764705882352941" d="M 38.5 100 L 38.5 101 L 38.5 100 Z "></path><path fill="rgb(0,140,211)" stroke="rgb(0,140,211)" stroke-width="1" opacity="0.9764705882352941" d="M 46.5 100 L 47 102.5 L 46 102.5 L 46.5 100 Z "></path><path fill="rgb(0,140,211)" stroke="rgb(0,140,211)" stroke-width="1" opacity="0.9764705882352941" d="M 37.5 102 L 37.5 103 L 37.5 102 Z "></path><path fill="rgb(0,140,211)" stroke="rgb(0,140,211)" stroke-width="1" opacity="0.9764705882352941" d="M 45.5 105 L 46 108.5 L 45 108.5 L 45.5 105 Z "></path><path fill="rgb(0,140,211)" stroke="rgb(0,140,211)" stroke-width="1" opacity="0.9764705882352941" d="M 31.5 110 L 32 112.5 L 31 112.5 L 31.5 110 Z "></path><path fill="rgb(0,140,211)" stroke="rgb(0,140,211)" stroke-width="1" opacity="0.9764705882352941" d="M 27 112 Q 30 111 29 114 Q 26 112.75 27 116.5 L 23.5 123 L 23 121.5 L 27 112 Z "></path><path fill="rgb(0,140,211)" stroke="rgb(0,140,211)" stroke-width="1" opacity="0.9764705882352941" d="M 44.5 112 L 45 113.5 L 44 113.5 L 44.5 112 Z "></path><path fill="rgb(0,140,211)" stroke="rgb(0,140,211)" stroke-width="1" opacity="0.9764705882352941" d="M 44.5 115 L 44.5 116 L 44.5 115 Z "></path><path fill="rgb(0,140,211)" stroke="rgb(0,140,211)" stroke-width="1" opacity="0.9764705882352941" d="M 22 124 L 24 124.5 L 22 126.5 L 19.5 135 L 19 132.5 L 22 124 Z "></path><path fill="rgb(0,140,211)" stroke="rgb(0,140,211)" stroke-width="1" opacity="0.9764705882352941" d="M 18.5 136 L 19 138.5 L 17.5 142 L 17 139.5 L 18.5 136 Z "></path><path fill="rgb(0,140,211)" stroke="rgb(0,140,211)" stroke-width="1" opacity="0.9764705882352941" d="M 16.5 143 L 17 145.5 L 16 145.5 L 16.5 143 Z "></path><path fill="rgb(0,140,211)" stroke="rgb(0,140,211)" stroke-width="1" opacity="0.9764705882352941" d="M 15.5 147 L 16 149.5 L 15 149.5 L 15.5 147 Z "></path><path fill="rgb(0,140,211)" stroke="rgb(0,140,211)" stroke-width="1" opacity="0.9764705882352941" d="M 14.5 153 L 15 156.5 L 14 156.5 L 14.5 153 Z "></path><path fill="rgb(0,140,211)" stroke="rgb(0,140,211)" stroke-width="1" opacity="0.9764705882352941" d="M 13.5 159 L 14 160.5 L 13 160.5 L 13.5 159 Z "></path><path fill="rgb(0,140,211)" stroke="rgb(0,140,211)" stroke-width="1" opacity="0.9764705882352941" d="M 13.5 162 L 14 163.5 L 13 163.5 L 13.5 162 Z "></path><path fill="rgb(0,140,211)" stroke="rgb(0,140,211)" stroke-width="1" opacity="0.9764705882352941" d="M 13.5 166 L 13.5 167 L 13.5 166 Z "></path><path fill="rgb(0,140,211)" stroke="rgb(0,140,211)" stroke-width="1" opacity="0.9764705882352941" d="M 13.5 175 L 13.5 176 L 13.5 175 Z "></path><path fill="rgb(0,142,213)" stroke="rgb(0,142,213)" stroke-width="1" opacity="0.9921568627450981" d="M 57.5 65 L 57.5 66 L 57.5 65 Z "></path><path fill="rgb(0,142,213)" stroke="rgb(0,142,213)" stroke-width="1" opacity="0.9921568627450981" d="M 56.5 67 L 57 68.5 L 56 68.5 L 56.5 67 Z "></path><path fill="rgb(0,142,213)" stroke="rgb(0,142,213)" stroke-width="1" opacity="0.9921568627450981" d="M 54 70 L 56 70.5 L 52 78.5 L 52 81.5 L 49 88.5 L 49 91.5 L 46 100.5 L 45 111.5 L 44 112.5 L 43.5 125 L 42.5 123 L 40 124 Q 40.75 127 38.5 128 Q 36.25 127.25 37 129.5 L 36 131.5 L 36.5 133 L 35 132.5 L 35 135 Q 32.33 133.88 33 136.5 L 29 142.5 L 29 145 Q 26.33 143.88 27 146.5 L 24 148.5 Q 26 149.5 24 150.5 L 22 155 Q 19.33 153.88 20 156.5 L 19 157.5 L 19.5 159 Q 18.25 156.75 17 159.5 Q 19 160.5 17 161.5 L 16.5 163 L 15 162.5 L 14.5 165 L 14 157.5 L 15 156.5 L 15 150.5 L 19 138.5 L 19 135.5 L 22 126.5 L 24 124.5 Q 22 123.5 24 122.5 L 27 116.5 L 27 114 Q 29.67 115.13 29 112.5 Q 27 111.5 29 110.5 L 31 105.5 L 38 96.5 L 40 91.5 L 47 82.5 L 48 79.5 L 54 71.5 L 54 70 Z M 47 88 L 47 89 L 47 88 Z M 39 100 L 39 101 L 39 100 Z M 38 102 L 38 103 L 38 102 Z M 32 110 L 31 113 L 32 113 L 32 110 Z "></path><path fill="rgb(0,142,213)" stroke="rgb(0,142,213)" stroke-width="1" opacity="0.9921568627450981" d="M 43.5 126 L 44 127.5 L 43 127.5 L 43.5 126 Z "></path><path fill="rgb(0,142,213)" stroke="rgb(0,142,213)" stroke-width="1" opacity="0.9921568627450981" d="M 13.5 167 L 14 168.5 L 13 168.5 L 13.5 167 Z "></path><path fill="rgb(0,142,213)" stroke="rgb(0,142,213)" stroke-width="1" opacity="0.9921568627450981" d="M 13.5 170 L 14 171.5 L 13 171.5 L 13.5 170 Z "></path><path fill="rgb(0,142,213)" stroke="rgb(0,142,213)" stroke-width="1" opacity="0.9921568627450981" d="M 13.5 174 L 13.5 175 L 13.5 174 Z "></path><path fill="rgb(60,187,237)" stroke="rgb(60,187,237)" stroke-width="1" opacity="0.6745098039215687" d="M 230.5 129 L 231 139.5 L 230 139.5 L 230 132.5 L 229 131.5 L 230.5 129 Z "></path><path fill="rgb(60,187,237)" stroke="rgb(60,187,237)" stroke-width="1" opacity="0.6745098039215687" d="M 44.5 132 L 45 133.5 L 44 133.5 L 44.5 132 Z "></path><path fill="rgb(60,187,237)" stroke="rgb(60,187,237)" stroke-width="1" opacity="0.6745098039215687" d="M 228.5 134 L 228.5 135 L 228.5 134 Z "></path><path fill="rgb(60,187,237)" stroke="rgb(60,187,237)" stroke-width="1" opacity="0.6745098039215687" d="M 227.5 136 L 227.5 137 L 227.5 136 Z "></path><path fill="rgb(60,187,237)" stroke="rgb(60,187,237)" stroke-width="1" opacity="0.6745098039215687" d="M 226.5 138 L 227 139.5 L 226 139.5 L 226.5 138 Z "></path><path fill="rgb(60,187,237)" stroke="rgb(60,187,237)" stroke-width="1" opacity="0.6745098039215687" d="M 45.5 140 L 45.5 141 L 45.5 140 Z "></path><path fill="rgb(60,187,237)" stroke="rgb(60,187,237)" stroke-width="1" opacity="0.6745098039215687" d="M 225.5 141 L 225.5 142 L 225.5 141 Z "></path><path fill="rgb(60,187,237)" stroke="rgb(60,187,237)" stroke-width="1" opacity="0.6745098039215687" d="M 224.5 143 Q 226 144 223.5 145 Q 222 144 224.5 143 Z "></path><path fill="rgb(60,187,237)" stroke="rgb(60,187,237)" stroke-width="1" opacity="0.6745098039215687" d="M 229.5 145 L 230 147.5 L 229 147.5 L 229.5 145 Z "></path><path fill="rgb(60,187,237)" stroke="rgb(60,187,237)" stroke-width="1" opacity="0.6745098039215687" d="M 222.5 146 L 222.5 147 L 222.5 146 Z "></path><path fill="rgb(60,187,237)" stroke="rgb(60,187,237)" stroke-width="1" opacity="0.6745098039215687" d="M 221.5 148 Q 223 149 220.5 150 Q 219 149 221.5 148 Z "></path><path fill="rgb(60,187,237)" stroke="rgb(60,187,237)" stroke-width="1" opacity="0.6745098039215687" d="M 219.5 151 L 220 151.5 L 217.5 154 L 217 153.5 L 219.5 151 Z "></path><path fill="rgb(60,187,237)" stroke="rgb(60,187,237)" stroke-width="1" opacity="0.6745098039215687" d="M 228.5 151 L 229 153.5 L 228 153.5 L 228.5 151 Z "></path><path fill="rgb(60,187,237)" stroke="rgb(60,187,237)" stroke-width="1" opacity="0.6745098039215687" d="M 41.5 153 L 41.5 154 L 41.5 153 Z "></path><path fill="rgb(60,187,237)" stroke="rgb(60,187,237)" stroke-width="1" opacity="0.6745098039215687" d="M 40.5 156 L 40.5 157 L 40.5 156 Z "></path><path fill="rgb(60,187,237)" stroke="rgb(60,187,237)" stroke-width="1" opacity="0.6745098039215687" d="M 215.5 156 L 216 156.5 L 211.5 161 L 211 160.5 L 215.5 156 Z "></path><path fill="rgb(60,187,237)" stroke="rgb(60,187,237)" stroke-width="1" opacity="0.6745098039215687" d="M 227.5 156 L 228 157.5 L 227 157.5 L 227.5 156 Z "></path><path fill="rgb(60,187,237)" stroke="rgb(60,187,237)" stroke-width="1" opacity="0.6745098039215687" d="M 226.5 160 L 226.5 161 L 226.5 160 Z "></path><path fill="rgb(60,187,237)" stroke="rgb(60,187,237)" stroke-width="1" opacity="0.6745098039215687" d="M 39.5 161 L 40 162.5 L 39 162.5 L 39.5 161 Z "></path><path fill="rgb(60,187,237)" stroke="rgb(60,187,237)" stroke-width="1" opacity="0.6745098039215687" d="M 207.5 163 L 208 163.5 L 204.5 167 L 204 166.5 L 207.5 163 Z "></path><path fill="rgb(60,187,237)" stroke="rgb(60,187,237)" stroke-width="1" opacity="0.6745098039215687" d="M 225.5 163 L 225.5 164 L 225.5 163 Z "></path><path fill="rgb(60,187,237)" stroke="rgb(60,187,237)" stroke-width="1" opacity="0.6745098039215687" d="M 224.5 166 L 224.5 167 L 224.5 166 Z "></path><path fill="rgb(60,187,237)" stroke="rgb(60,187,237)" stroke-width="1" opacity="0.6745098039215687" d="M 202.5 167 Q 204 168 201.5 169 Q 200 168 202.5 167 Z "></path><path fill="rgb(60,187,237)" stroke="rgb(60,187,237)" stroke-width="1" opacity="0.6745098039215687" d="M 39.5 168 L 40 169.5 L 39 169.5 L 39.5 168 Z "></path><path fill="rgb(60,187,237)" stroke="rgb(60,187,237)" stroke-width="1" opacity="0.6745098039215687" d="M 223.5 168 L 223.5 169 L 223.5 168 Z "></path><path fill="rgb(60,187,237)" stroke="rgb(60,187,237)" stroke-width="1" opacity="0.6745098039215687" d="M 199.5 169 Q 201 170 198.5 171 Q 197 170 199.5 169 Z "></path><path fill="rgb(60,187,237)" stroke="rgb(60,187,237)" stroke-width="1" opacity="0.6745098039215687" d="M 222.5 170 L 223 171.5 L 220.5 175 L 221 173.5 L 222.5 170 Z "></path><path fill="rgb(60,187,237)" stroke="rgb(60,187,237)" stroke-width="1" opacity="0.6745098039215687" d="M 196.5 171 L 196.5 172 L 196.5 171 Z "></path><path fill="rgb(60,187,237)" stroke="rgb(60,187,237)" stroke-width="1" opacity="0.6745098039215687" d="M 194.5 172 Q 196 173 193.5 174 Q 192 173 194.5 172 Z "></path><path fill="rgb(60,187,237)" stroke="rgb(60,187,237)" stroke-width="1" opacity="0.6745098039215687" d="M 40.5 174 L 40.5 175 L 40.5 174 Z "></path><path fill="rgb(60,187,237)" stroke="rgb(60,187,237)" stroke-width="1" opacity="0.6745098039215687" d="M 191.5 174 L 191.5 175 L 191.5 174 Z "></path><path fill="rgb(60,187,237)" stroke="rgb(60,187,237)" stroke-width="1" opacity="0.6745098039215687" d="M 189.5 175 L 189.5 176 L 189.5 175 Z "></path><path fill="rgb(60,187,237)" stroke="rgb(60,187,237)" stroke-width="1" opacity="0.6745098039215687" d="M 187.5 176 L 187.5 177 L 187.5 176 Z "></path><path fill="rgb(60,187,237)" stroke="rgb(60,187,237)" stroke-width="1" opacity="0.6745098039215687" d="M 219.5 176 L 219.5 177 L 219.5 176 Z "></path><path fill="rgb(60,187,237)" stroke="rgb(60,187,237)" stroke-width="1" opacity="0.6745098039215687" d="M 41.5 177 L 41.5 178 L 41.5 177 Z "></path><path fill="rgb(60,187,237)" stroke="rgb(60,187,237)" stroke-width="1" opacity="0.6745098039215687" d="M 184.5 177 L 184.5 178 L 184.5 177 Z "></path><path fill="rgb(60,187,237)" stroke="rgb(60,187,237)" stroke-width="1" opacity="0.6745098039215687" d="M 182.5 178 L 182.5 179 L 182.5 178 Z "></path><path fill="rgb(60,187,237)" stroke="rgb(60,187,237)" stroke-width="1" opacity="0.6745098039215687" d="M 218.5 178 Q 220 179 217.5 180 Q 216 179 218.5 178 Z "></path><path fill="rgb(60,187,237)" stroke="rgb(60,187,237)" stroke-width="1" opacity="0.6745098039215687" d="M 179.5 179 L 181 179.5 L 179.5 180 L 179.5 179 Z "></path><path fill="rgb(60,187,237)" stroke="rgb(60,187,237)" stroke-width="1" opacity="0.6745098039215687" d="M 177.5 180 L 177.5 181 L 177.5 180 Z "></path><path fill="rgb(60,187,237)" stroke="rgb(60,187,237)" stroke-width="1" opacity="0.6745098039215687" d="M 13.5 181 L 13.5 182 L 13.5 181 Z "></path><path fill="rgb(60,187,237)" stroke="rgb(60,187,237)" stroke-width="1" opacity="0.6745098039215687" d="M 174.5 181 L 174.5 182 L 174.5 181 Z "></path><path fill="rgb(60,187,237)" stroke="rgb(60,187,237)" stroke-width="1" opacity="0.6745098039215687" d="M 216.5 181 L 217 181.5 L 214.5 184 L 214 183.5 L 216.5 181 Z "></path><path fill="rgb(60,187,237)" stroke="rgb(60,187,237)" stroke-width="1" opacity="0.6745098039215687" d="M 171.5 182 L 171.5 183 L 171.5 182 Z "></path><path fill="rgb(60,187,237)" stroke="rgb(60,187,237)" stroke-width="1" opacity="0.6745098039215687" d="M 44.5 183 L 44.5 184 L 44.5 183 Z "></path><path fill="rgb(60,187,237)" stroke="rgb(60,187,237)" stroke-width="1" opacity="0.6745098039215687" d="M 168.5 183 L 168.5 184 L 168.5 183 Z "></path><path fill="rgb(60,187,237)" stroke="rgb(60,187,237)" stroke-width="1" opacity="0.6745098039215687" d="M 164.5 184 L 164.5 185 L 164.5 184 Z "></path><path fill="rgb(60,187,237)" stroke="rgb(60,187,237)" stroke-width="1" opacity="0.6745098039215687" d="M 160.5 185 L 162 185.5 L 160.5 186 L 160.5 185 Z "></path><path fill="rgb(60,187,237)" stroke="rgb(60,187,237)" stroke-width="1" opacity="0.6745098039215687" d="M 156.5 186 L 156.5 187 L 156.5 186 Z "></path><path fill="rgb(60,187,237)" stroke="rgb(60,187,237)" stroke-width="1" opacity="0.6745098039215687" d="M 212.5 186 L 213 186.5 L 205.5 194 L 205 193.5 L 212.5 186 Z "></path><path fill="rgb(60,187,237)" stroke="rgb(60,187,237)" stroke-width="1" opacity="0.6745098039215687" d="M 47.5 187 L 50 189.5 L 49.5 190 L 47 187.5 L 47.5 187 Z "></path><path fill="rgb(60,187,237)" stroke="rgb(60,187,237)" stroke-width="1" opacity="0.6745098039215687" d="M 151.5 187 L 153 187.5 L 151.5 188 L 151.5 187 Z "></path><path fill="rgb(60,187,237)" stroke="rgb(60,187,237)" stroke-width="1" opacity="0.6745098039215687" d="M 95.5 188 L 96 188.5 L 93.5 191 L 93 190.5 L 95.5 188 Z "></path><path fill="rgb(60,187,237)" stroke="rgb(60,187,237)" stroke-width="1" opacity="0.6745098039215687" d="M 99.5 188 L 99.5 189 L 99.5 188 Z "></path><path fill="rgb(60,187,237)" stroke="rgb(60,187,237)" stroke-width="1" opacity="0.6745098039215687" d="M 145.5 188 L 147 188.5 L 145.5 189 L 145.5 188 Z "></path><path fill="rgb(60,187,237)" stroke="rgb(60,187,237)" stroke-width="1" opacity="0.6745098039215687" d="M 105.5 189 L 107 189.5 L 105.5 190 L 105.5 189 Z "></path><path fill="rgb(60,187,237)" stroke="rgb(60,187,237)" stroke-width="1" opacity="0.6745098039215687" d="M 137.5 189 L 140 189.5 L 137.5 190 L 137.5 189 Z "></path><path fill="rgb(60,187,237)" stroke="rgb(60,187,237)" stroke-width="1" opacity="0.6745098039215687" d="M 119.5 190 L 125 190.5 L 119.5 191 L 119.5 190 Z "></path><path fill="rgb(60,187,237)" stroke="rgb(60,187,237)" stroke-width="1" opacity="0.6745098039215687" d="M 56.5 194 L 56.5 195 L 56.5 194 Z "></path><path fill="rgb(60,187,237)" stroke="rgb(60,187,237)" stroke-width="1" opacity="0.6745098039215687" d="M 87.5 194 L 87.5 195 L 87.5 194 Z "></path><path fill="rgb(60,187,237)" stroke="rgb(60,187,237)" stroke-width="1" opacity="0.6745098039215687" d="M 58.5 195 L 58.5 196 L 58.5 195 Z "></path><path fill="rgb(60,187,237)" stroke="rgb(60,187,237)" stroke-width="1" opacity="0.6745098039215687" d="M 85.5 195 L 85.5 196 L 85.5 195 Z "></path><path fill="rgb(60,187,237)" stroke="rgb(60,187,237)" stroke-width="1" opacity="0.6745098039215687" d="M 201.5 196 Q 203 197 200.5 198 Q 199 197 201.5 196 Z "></path><path fill="rgb(60,187,237)" stroke="rgb(60,187,237)" stroke-width="1" opacity="0.6745098039215687" d="M 64.5 197 L 64.5 198 L 64.5 197 Z "></path><path fill="rgb(60,187,237)" stroke="rgb(60,187,237)" stroke-width="1" opacity="0.6745098039215687" d="M 79.5 197 L 79.5 198 L 79.5 197 Z "></path><path fill="rgb(60,187,237)" stroke="rgb(60,187,237)" stroke-width="1" opacity="0.6745098039215687" d="M 71.5 198 L 71.5 199 L 71.5 198 Z "></path><path fill="rgb(60,187,237)" stroke="rgb(60,187,237)" stroke-width="1" opacity="0.6745098039215687" d="M 197.5 199 Q 199 200 196.5 201 Q 195 200 197.5 199 Z "></path><path fill="rgb(60,187,237)" stroke="rgb(60,187,237)" stroke-width="1" opacity="0.6745098039215687" d="M 194.5 201 Q 196 202 193.5 203 Q 192 202 194.5 201 Z "></path><path fill="rgb(60,187,237)" stroke="rgb(60,187,237)" stroke-width="1" opacity="0.6745098039215687" d="M 191.5 203 L 191.5 204 L 191.5 203 Z "></path><path fill="rgb(60,187,237)" stroke="rgb(60,187,237)" stroke-width="1" opacity="0.6745098039215687" d="M 21.5 204 L 21.5 205 L 21.5 204 Z "></path><path fill="rgb(60,187,237)" stroke="rgb(60,187,237)" stroke-width="1" opacity="0.6745098039215687" d="M 189.5 204 Q 191 205 188.5 206 Q 187 205 189.5 204 Z "></path><path fill="rgb(60,187,237)" stroke="rgb(60,187,237)" stroke-width="1" opacity="0.6745098039215687" d="M 186.5 206 L 186.5 207 L 186.5 206 Z "></path><path fill="rgb(0,146,216)" stroke="rgb(0,146,216)" stroke-width="1" opacity="0.996078431372549" d="M 44.5 114 L 44.5 115 L 44.5 114 Z "></path><path fill="rgb(0,146,216)" stroke="rgb(0,146,216)" stroke-width="1" opacity="0.996078431372549" d="M 44.5 116 L 45 117.5 L 44 117.5 L 44.5 116 Z "></path><path fill="rgb(0,146,216)" stroke="rgb(0,146,216)" stroke-width="1" opacity="0.996078431372549" d="M 42.5 123 L 44 125.5 L 43 127.5 L 44 128.5 Q 42.75 133.25 45 134.5 L 46 146.5 L 40 156.5 Q 41 160.5 39 161.5 L 39 169.5 L 40 170.5 L 40 174.5 L 43 182.5 L 52 192.5 L 41.5 207 L 23.5 207 L 22 205.5 L 19 200.5 L 19 198.5 L 17 196.5 L 15 190.5 L 13 176.5 L 14 174.5 L 13 172.5 L 14 170.5 Q 12 169.5 14 168.5 L 13 164.5 L 15 164.5 L 15.5 162 L 17 162.5 L 18 160.5 L 17 159.5 L 20 156.5 L 20 155 Q 22.67 156.13 22 153.5 L 25 149.5 L 24.5 148 L 27 146.5 Q 26.33 143.88 29 145 L 29 142.5 L 31 140.5 L 31 138.5 Q 33.5 137.5 33 135 Q 36 136.25 35 132.5 L 37 128 L 40 126.5 Q 38.88 123.17 41.5 124 L 42.5 123 Z M 37 132 L 37 133 L 37 132 Z M 20 158 L 20 159 L 20 158 Z "></path><path fill="rgb(0,146,216)" stroke="rgb(0,146,216)" stroke-width="1" opacity="0.996078431372549" d="M 14.5 152 L 14.5 153 L 14.5 152 Z "></path><path fill="rgb(0,146,216)" stroke="rgb(0,146,216)" stroke-width="1" opacity="0.996078431372549" d="M 13.5 161 L 13.5 162 L 13.5 161 Z "></path><path fill="rgb(180,207,105)" stroke="rgb(180,207,105)" stroke-width="1" opacity="0.9568627450980393" d="M 107.5 0 L 125 0.5 L 109.5 8 L 92.5 20 L 86.5 26 L 87 24.5 L 93 15.5 L 107.5 0 Z "></path><path fill="rgb(198,198,198)" stroke="rgb(198,198,198)" stroke-width="1" opacity="0.9372549019607843" d="M 166.5 4 Q 173.75 2.75 176 6.5 Q 177.83 8.67 177 13.5 Q 174.5 14.5 175 17 L 172.5 18 L 167.5 18 L 163 14.5 L 162 9.5 L 166.5 4 Z "></path><path fill="rgb(198,198,198)" stroke="rgb(198,198,198)" stroke-width="1" opacity="0.9372549019607843" d="M 69.5 155 L 76.5 156 L 82 161.5 Q 83.75 171.25 78.5 174 L 73.5 176 L 69.5 176 L 63 171.5 Q 60.83 168.67 62 162.5 L 65 158.5 L 65 157 L 69.5 155 Z "></path><path fill="rgb(4,158,225)" stroke="rgb(4,158,225)" stroke-width="1" opacity="0.9921568627450981" d="M 42.5 180 L 42.5 181 L 42.5 180 Z "></path><path fill="rgb(4,158,225)" stroke="rgb(4,158,225)" stroke-width="1" opacity="0.9921568627450981" d="M 43.5 182 L 43.5 183 L 43.5 182 Z "></path><path fill="rgb(4,158,225)" stroke="rgb(4,158,225)" stroke-width="1" opacity="0.9921568627450981" d="M 45.5 185 Q 48 186 46.5 187 Q 44 186 45.5 185 Z "></path><path fill="rgb(4,158,225)" stroke="rgb(4,158,225)" stroke-width="1" opacity="0.9921568627450981" d="M 96.5 188 L 99.5 189 L 104.5 189 L 105.5 190 L 118.5 190 L 119.5 191 L 124 191 L 124 192.5 L 119 198.5 L 119 201 L 117 201 L 117 204 L 115 204 Q 115.38 206.96 114.5 207 L 42.5 207 L 42 206.5 L 44 204.5 L 45 201.5 L 52 192.5 L 50 190.5 L 50.5 190 L 58.5 196 L 64.5 198 L 70.5 198 L 71.5 199 L 72.5 198 L 79.5 198 L 85.5 196 L 96.5 188 Z "></path><path fill="rgb(4,158,225)" stroke="rgb(4,158,225)" stroke-width="1" opacity="0.9921568627450981" d="M 18.5 198 L 18.5 199 L 18.5 198 Z "></path><path fill="rgb(166,166,165)" stroke="rgb(166,166,165)" stroke-width="1" opacity="0.4" d="M 152.5 0 L 153 1.5 L 150 7.5 L 150 14.5 L 153 21.5 L 159.5 28 L 164.5 30 L 175.5 30 L 181.5 27 L 185 23.5 L 189 15.5 L 189 6.5 L 186 0.5 L 188 0 L 190 5.5 L 190 16.5 Q 187.42 23.92 181.5 28 L 175.5 31 L 167.5 32 L 157.5 28 L 153 23.5 L 149 14.5 L 149 7.5 L 151 1.5 L 152.5 0 Z "></path><path fill="rgb(166,166,165)" stroke="rgb(166,166,165)" stroke-width="1" opacity="0.4" d="M 212.5 1 L 212.5 2 L 212.5 1 Z "></path><path fill="rgb(166,166,165)" stroke="rgb(166,166,165)" stroke-width="1" opacity="0.4" d="M 83.5 27 L 83.5 28 L 83.5 27 Z "></path><path fill="rgb(166,166,165)" stroke="rgb(166,166,165)" stroke-width="1" opacity="0.4" d="M 67.5 137 L 77.5 137 L 83.5 139 L 94 146.5 L 97 150.5 L 100 157.5 L 101 168.5 L 97 180.5 L 90.5 188 L 78.5 194 L 65.5 194 L 56.5 190 L 49 183.5 L 44 172.5 Q 44.75 169.25 43 168.5 L 43 162.5 L 48 149.5 L 53.5 143 L 60.5 139 L 66.5 138 L 67.5 137 Z M 68 138 L 67 139 L 61 140 L 56 143 L 48 152 L 44 164 L 45 173 L 49 182 Q 55 190 66 193 L 79 193 L 88 189 L 95 182 L 99 174 Q 98 169 100 169 L 99 159 L 95 150 L 89 143 L 81 139 Q 77 140 77 138 L 68 138 Z "></path><path fill="rgb(173,173,172)" stroke="rgb(173,173,172)" stroke-width="1" opacity="0.996078431372549" d="M 153 0 L 160.5 0 L 161 1.5 L 158 4.5 L 156 11.5 L 158 17.5 L 161.5 22 L 165.5 24 L 173.5 24 Q 178.33 22.33 181 18.5 L 183 14.5 L 183 7.5 L 178 0.5 L 185.5 0 L 189 6.5 L 189 15.5 L 187 20.5 L 181.5 27 L 175.5 30 L 164.5 30 L 159.5 28 L 153 21.5 L 150 14.5 L 150 7.5 L 153 0 Z "></path><path fill="rgb(173,173,172)" stroke="rgb(173,173,172)" stroke-width="1" opacity="0.996078431372549" d="M 67.5 138 L 76.5 138 Q 77.25 139.75 80.5 139 L 88.5 143 L 95 149.5 L 99 158.5 L 100 168.5 Q 98 169.5 99 173.5 L 95 181.5 L 87.5 189 L 78.5 193 L 65.5 193 Q 54.92 189.58 49 181.5 L 45 172.5 L 44 163.5 L 48 151.5 L 55.5 143 L 60.5 140 L 66.5 139 L 67.5 138 Z M 68 147 L 62 150 Q 55 153 54 163 L 53 166 Q 55 167 54 172 L 58 179 L 63 182 L 68 184 L 78 184 L 81 183 L 85 179 L 86 179 L 91 169 L 91 163 L 89 159 L 89 156 Q 86 157 87 155 L 82 149 L 80 149 L 77 147 L 68 147 Z "></path><path fill="rgb(39,178,234)" stroke="rgb(39,178,234)" stroke-width="1" opacity="0.9921568627450981" d="M 183.5 178 Q 186.12 177.33 185 180 Q 182.33 178.87 183 181.5 L 168 203.5 L 167 207 L 115.5 207 Q 114.63 206.96 115 204 L 117 204 L 117 201 Q 120 202.25 119 198.5 L 125.5 190 L 139.5 190 L 140.5 189 L 152.5 188 L 153.5 187 L 168.5 184 L 180.5 180 L 183.5 178 Z "></path><path fill="rgb(62,188,238)" stroke="rgb(62,188,238)" stroke-width="1" opacity="0.996078431372549" d="M 229.5 132 L 230 144.5 L 229 145.5 L 229 150.5 L 228 151.5 L 227 159.5 L 219 177.5 Q 212.21 188.21 202.5 196 L 185.5 207 L 167 207 L 168 203.5 L 182 183.5 L 183 180 Q 186.33 181.13 185 177 L 187.5 177 L 204.5 167 L 216 156.5 L 225 143.5 L 229.5 132 Z "></path></svg>